<svg width="76" height="75" viewBox="0 0 79 75" fill="none" xmlns="http://www.w3.org/2000/svg">
<path d="M75.0442 25.0133H69.4356L54.7742 0.35257L47.9175 4.1185L60.3394 25.0133H18.6541L31.0799 4.1185L24.2192 0.35257L9.5579 25.0133H3.9493C3.34222 25.014 2.74344 25.149 2.19939 25.4079C1.65534 25.6668 1.18063 26.0426 0.812052 26.5063C0.443477 26.9699 0.19094 27.509 0.0740189 28.0815C-0.0429025 28.6541 -0.0210673 29.2449 0.13783 29.808L11.1931 68.7733C11.6526 70.3783 12.647 71.7943 14.0238 72.8043C15.4007 73.8143 17.084 74.3626 18.816 74.3652H60.1814C63.7282 74.3652 66.8643 72.0684 67.8043 68.7657L78.8596 29.8043C79.0204 29.2409 79.0434 28.6494 78.927 28.0761C78.8105 27.5027 78.5577 26.963 78.1883 26.4991C77.8188 26.0353 77.3428 25.6598 76.7974 25.402C76.252 25.1443 75.6519 25.0112 75.0442 25.0133ZM60.1774 66.7726H18.816L9.12343 32.6059H69.87L60.1774 66.7726Z" fill="white"/>
<path d="M27.6476 40.1984H35.547V59.1799H27.6476V40.1984ZM43.4464 40.1984H51.3459V59.1799H43.4464V40.1984Z" fill="white"/>
</svg>
