<svg width="25" height="24" viewBox="0 0 25 24" fill="none" xmlns="http://www.w3.org/2000/svg">
<path d="M3.25 6H5.25H21.25" stroke="#A30D11" stroke-width="2" stroke-linecap="round" stroke-linejoin="round"/>
<path d="M8.25 6V4C8.25 3.46957 8.46071 2.96086 8.83579 2.58579C9.21086 2.21071 9.71957 2 10.25 2H14.25C14.7804 2 15.2891 2.21071 15.6642 2.58579C16.0393 2.96086 16.25 3.46957 16.25 4V6M19.25 6V20C19.25 20.5304 19.0393 21.0391 18.6642 21.4142C18.2891 21.7893 17.7804 22 17.25 22H7.25C6.71957 22 6.21086 21.7893 5.83579 21.4142C5.46071 21.0391 5.25 20.5304 5.25 20V6H19.25Z" stroke="#A30D11" stroke-width="2" stroke-linecap="round" stroke-linejoin="round"/>
<path d="M10.25 11V17" stroke="#A30D11" stroke-width="2" stroke-linecap="round" stroke-linejoin="round"/>
<path d="M14.25 11V17" stroke="#A30D11" stroke-width="2" stroke-linecap="round" stroke-linejoin="round"/>
</svg>
