<svg width="25" height="24" viewBox="0 0 25 24" fill="none" xmlns="http://www.w3.org/2000/svg">
<path d="M11.25 4H4.25C3.71957 4 3.21086 4.21071 2.83579 4.58579C2.46071 4.96086 2.25 5.46957 2.25 6V20C2.25 20.5304 2.46071 21.0391 2.83579 21.4142C3.21086 21.7893 3.71957 22 4.25 22H18.25C18.7804 22 19.2891 21.7893 19.6642 21.4142C20.0393 21.0391 20.25 20.5304 20.25 20V13" stroke="#624DE3" stroke-width="2" stroke-linecap="round" stroke-linejoin="round"/>
<path d="M18.75 2.5C19.1478 2.10217 19.6874 1.87868 20.25 1.87868C20.8126 1.87868 21.3522 2.10217 21.75 2.5C22.1478 2.89782 22.3713 3.43739 22.3713 4C22.3713 4.56261 22.1478 5.10217 21.75 5.5L12.25 15L8.25 16L9.25 12L18.75 2.5Z" stroke="#624DE3" stroke-width="2" stroke-linecap="round" stroke-linejoin="round"/>
</svg>
