<svg width="43" height="43" viewBox="0 0 43 43" fill="none" xmlns="http://www.w3.org/2000/svg">
<path d="M31.4422 27.7035H29.471L28.7724 27.0302C30.3317 25.2197 31.4713 23.0872 32.1097 20.7851C32.7481 18.4831 32.8695 16.0685 32.4652 13.7141C31.2925 6.78169 25.5038 1.24576 18.5174 0.397911C16.0613 0.0873648 13.5666 0.342481 11.2242 1.14374C8.8819 1.945 6.75401 3.27116 5.0034 5.02074C3.25279 6.77033 1.92585 8.89697 1.12412 11.2379C0.322398 13.5789 0.0671316 16.0721 0.37786 18.5268C1.2262 25.5091 6.76538 31.2944 13.7018 32.4664C16.0576 32.8705 18.4736 32.7492 20.777 32.1112C23.0804 31.4732 25.2143 30.3342 27.0258 28.7758L27.6995 29.474V31.444L38.3038 42.0421C39.3268 43.0645 40.9985 43.0645 42.0215 42.0421C43.0445 41.0197 43.0445 39.3489 42.0215 38.3265L31.4422 27.7035ZM16.4714 27.7035C10.2586 27.7035 5.24335 22.6913 5.24335 16.482C5.24335 10.2728 10.2586 5.26055 16.4714 5.26055C22.6843 5.26055 27.6995 10.2728 27.6995 16.482C27.6995 22.6913 22.6843 27.7035 16.4714 27.7035Z" fill="white"/>
</svg>
